<svg xmlns="http://www.w3.org/2000/svg" viewBox="0 0 32 32" id="gym">
  <path d="M20.878 5.464a3 3 0 0 0-4.242 0L16 6.1a3 3 0 0 0 0 4.242l2.121 2.122-5.656 5.656L10.343 16A3 3 0 0 0 6.1 16l-.637.636a3 3 0 0 0 0 4.242l5.658 5.658a3 3 0 0 0 4.242 0L16 25.9a3 3 0 0 0 0-4.242l-2.121-2.122 5.656-5.656L21.657 16a3 3 0 0 0 4.243 0l.637-.636a3 3 0 0 0 0-4.242zm7.852.636L25.9 3.27a3 3 0 0 0-4.24 0l-.15.15a4.68 4.68 0 0 1 .78.63l5.66 5.66a4.68 4.68 0 0 1 .63.78l.15-.15a3 3 0 0 0 0-4.24zM4.05 22.29a4.68 4.68 0 0 1-.63-.78l-.15.15a3 3 0 0 0 0 4.24l2.83 2.83a3.018 3.018 0 0 0 4.24 0l.15-.15a4.68 4.68 0 0 1-.78-.63z"></path>
</svg>
