<svg xmlns="http://www.w3.org/2000/svg" viewBox="0 0 24 24" id="mobile-shopping">
  <defs>
    <linearGradient id="a" x1="2.02" x2="17.7" y1="20.49" y2="4.81" gradientUnits="userSpaceOnUse">
      <stop offset="0" stop-color="#339"></stop>
      <stop offset=".1" stop-color="#3c319b"></stop>
      <stop offset=".26" stop-color="#542ba1"></stop>
      <stop offset=".47" stop-color="#7c21ab"></stop>
      <stop offset=".7" stop-color="#b313b9"></stop>
      <stop offset=".97" stop-color="#f902ca"></stop>
      <stop offset=".99" stop-color="#f0c"></stop>
    </linearGradient>
  </defs>
  <g>
    <path fill="url(#a)" d="M10,4.25H8a.75.75,0,0,0,0,1.5h2a.75.75,0,0,0,0-1.5Zm0,0H8a.75.75,0,0,0,0,1.5h2a.75.75,0,0,0,0-1.5Zm0,0H8a.75.75,0,0,0,0,1.5h2a.75.75,0,0,0,0-1.5ZM21.74,16.78l-1-8A1.77,1.77,0,0,0,19,7.25h-.2V7A2.75,2.75,0,0,0,16,4.25l-.24,0V4A1.76,1.76,0,0,0,14,2.25H4A1.76,1.76,0,0,0,2.25,4V20A1.76,1.76,0,0,0,4,21.75H14A1.76,1.76,0,0,0,15.75,20V18.75H20a1.81,1.81,0,0,0,1.35-.6A1.77,1.77,0,0,0,21.74,16.78ZM14.75,7a1.27,1.27,0,0,1,.09-.43.42.42,0,0,1,0-.1,1.69,1.69,0,0,1,.21-.31l.09-.08A1.28,1.28,0,0,1,16,5.75,1.25,1.25,0,0,1,17.25,7v.26h-2.5Zm-.5,13a.25.25,0,0,1-.25.25H4A.25.25,0,0,1,3.75,20V4A.25.25,0,0,1,4,3.75H14a.25.25,0,0,1,.25.25v.88a.08.08,0,0,1,0,0,2.73,2.73,0,0,0-.33.35l-.07.08a2.14,2.14,0,0,0-.25.41.41.41,0,0,0-.05.09,2.51,2.51,0,0,0-.16.46.32.32,0,0,0,0,.09,2.88,2.88,0,0,0-.07.59v.26h-.2a1.77,1.77,0,0,0-1.76,1.53l-1,8a1.77,1.77,0,0,0,.42,1.37,1.81,1.81,0,0,0,1.35.6h2.22Zm5.94-2.84a.3.3,0,0,1-.22.09H12a.3.3,0,0,1-.22-.09.25.25,0,0,1-.06-.19l1-8a.27.27,0,0,1,.27-.22h.2V9a.75.75,0,0,0,1.5,0V8.75h2.5V9a.75.75,0,0,0,1.5,0V8.75H19a.27.27,0,0,1,.27.22l1,8A.25.25,0,0,1,20.19,17.16ZM10.75,5A.76.76,0,0,0,10,4.25H8a.75.75,0,0,0,0,1.5h2A.76.76,0,0,0,10.75,5ZM10,4.25H8a.75.75,0,0,0,0,1.5h2a.75.75,0,0,0,0-1.5Zm0,0H8a.75.75,0,0,0,0,1.5h2a.75.75,0,0,0,0-1.5Zm0,0H8a.75.75,0,0,0,0,1.5h2a.75.75,0,0,0,0-1.5Z"></path>
  </g>
</svg>
