<svg xmlns="http://www.w3.org/2000/svg" enable-background="new 0 0 50 50" viewBox="0 0 50 50" id="movie">
  <path fill="#1D1D1B" d="M0.3,6.9C1.4,14,0.7,21.6,0.7,28.8c0,2.7-1.8,13.1,1.5,14.8c4.2,2.1,11.5,0.7,16.2,0.8
				c7.9,0,15.7,0,23.6-0.1c3.3-0.1,6.4,0.8,6.8-3c0.9-7.6,0.8-15.4,0.9-23c0-2.2,1.2-11.6-1.8-12.3c-5.1-1.2-11.3-0.5-16.6-0.5
				c-6.6,0-13.2,0.1-19.8,0.2C8.1,5.7,4.4,5.4,1,6C0.1,6.2,0,7.5,1,7.3c4.8-0.9,10.3-0.4,15.2-0.4c8-0.1,16.1-0.2,24.1,0
				c2.3,0,4.7,0,6.9,0.4c1.4,0.2,1,7.4,1,8.6c0,7.9-0.2,15.9-0.7,23.8c-0.2,2.7,0.3,3.2-2.2,3.3C41.9,43,38.4,43,35,43.1
				c-7.3,0.1-14.6,0-21.9,0c-2.9,0-5.8,0.4-8.6,0c-3.5-0.5-2.3-7.3-2.3-9.5c0-8.1,0.1-16.1-0.2-24.2c0-1-0.1-2-0.2-3
				C1.6,5.6,0.2,6,0.3,6.9L0.3,6.9z"></path>
  <path fill="#1D1D1B" d="M1.9 12.7c13.9 0 27.9 0 41.8 0 .6 0 0-1.3-.6-1.3-13.9 0-27.9 0-41.8 0C.7 11.4 1.3 12.7 1.9 12.7L1.9 12.7zM5.3 16.8c1 2.3.6 5.7.6 8.1C6 28.4 6 32 6.1 35.5c.1 3.8.5 3.8 4.2 3.8 6.9.1 13.7 0 20.6-.1 1.3 0 11.8 1 12.4-.8 1.5-4.9.8-11.2.8-16.3 0-3.5.8-6.4-3.2-6.5-11.7-.4-23.3.2-35 .2-.9 0-.7 1.5.1 1.5 10.1 0 20.2-.3 30.4-.3 1.8 0 3.7 0 5.5.1 1.3.1.8 2.5.8 4.1 0 1.8.8 16.3-1.3 16.5-4.1.4-8.5 0-12.6 0-6 .1-12 .1-18 0-.8 0-1.6 0-2.4 0-1.2 0-1-.3-.9.3-.3-2.3-.1-4.7-.1-7 0-4.3.9-10.6-.8-14.7C6.3 15.6 4.9 15.9 5.3 16.8L5.3 16.8z"></path>
  <path fill="#1D1D1B" d="M8,35.4c10.3,0,20.7,0,31,0c1,0,0-0.8-0.6-0.8c-10.3,0-20.7,0-31,0C6.4,34.6,7.5,35.4,8,35.4L8,35.4z"></path>
  <path fill="#1D1D1B" d="M13.1 33.3c0 .9 0 1.8 0 2.7 0 .2 1.5.2 1.5 0 0-.9 0-1.8 0-2.7C14.6 33.1 13.1 33.1 13.1 33.3L13.1 33.3zM21.3 30.4c2.9-.1 4.8-2.3 7.3-3.5.1-.1.3-.2.2-.4-.8-1.2-2.5-2.1-3.6-2.9-1.1-.8-2.4-1.9-3.7-2.2-.3 0-.9 0-.9.4-.1 2.7-.2 5.5 0 8.2 0 .5 1.5.5 1.5-.1-.2-2.7-.1-5.5 0-8.2-.3.1-.6.3-.9.4.9.2 2.5 1.6 3.4 2.3.9.6 2.3 1.4 2.9 2.3.1-.1.1-.2.2-.4-2.1 1-3.9 3.2-6.3 3.2C20.3 29.7 20.4 30.4 21.3 30.4L21.3 30.4zM4.7 7.3c0 1.3 0 2.6 0 3.9 0 .1 1.4-.2 1.4-.6 0-1.3 0-2.6 0-3.9C6.1 6.6 4.7 6.9 4.7 7.3L4.7 7.3zM8.5 6.8c0 1.5 0 3 0 4.5 0 .5 1.5.6 1.5.2 0-1.5 0-3 0-4.5C10 6.5 8.5 6.4 8.5 6.8L8.5 6.8zM12 6.6c0 1.6 0 3.2 0 4.9 0 .3 1.5.4 1.5.2 0-1.6 0-3.2 0-4.9C13.5 6.5 12 6.4 12 6.6L12 6.6z"></path>
</svg>
