<svg xmlns="http://www.w3.org/2000/svg" viewBox="0 0 512 512" id="online-ai-brain">
  <path d="M390.28,232h11.1a24,24,0,1,0,0-16h-9.57a43.709,43.709,0,0,0-24.36-35.02A43.3,43.3,0,0,0,369.89,168H384a8,8,0,0,0,8-8V136h9.38a24,24,0,1,0,0-16H384a8,8,0,0,0-8,8v24h-8.59a43.379,43.379,0,0,0-37.18-28.63v-.44A43.3,43.3,0,0,0,256,92.63a43.3,43.3,0,0,0-74.23,30.3v.44A43.379,43.379,0,0,0,144.59,152H136V128a8,8,0,0,0-8-8H111.62a24,24,0,1,0,0,16H120v24a8,8,0,0,0,8,8h14.11a43.3,43.3,0,0,0,2.44,12.98A43.709,43.709,0,0,0,120.19,216h-8.57a24,24,0,1,0,0,16h10.1a43.811,43.811,0,0,0,22.83,27.02A43.58,43.58,0,0,0,142.57,280H128a8,8,0,0,0-8,8v24h-8.38a24,24,0,1,0,0,16H128a8,8,0,0,0,8-8V296h12.42a43.337,43.337,0,0,0,33.35,20.63v.44A43.3,43.3,0,0,0,256,347.37a43.3,43.3,0,0,0,74.23-30.3v-.44A43.337,43.337,0,0,0,363.58,296H376v24a8,8,0,0,0,8,8h17.38a24,24,0,1,0,0-16H392V288a8,8,0,0,0-8-8H369.43a43.58,43.58,0,0,0-1.98-20.98A43.811,43.811,0,0,0,390.28,232ZM424,216a8,8,0,1,1-8,8A8.011,8.011,0,0,1,424,216Zm0-96a8,8,0,1,1-8,8A8.011,8.011,0,0,1,424,120ZM89,136a8,8,0,1,1,8-8A8.011,8.011,0,0,1,89,136Zm0,96a8,8,0,1,1,8-8A8.011,8.011,0,0,1,89,232Zm0,96a8,8,0,1,1,8-8A8.011,8.011,0,0,1,89,328Zm158.95,3.95a27.294,27.294,0,0,1-49.73-19.81,39.024,39.024,0,0,0,20-23.68,8,8,0,1,0-15.34-4.56,23.01,23.01,0,0,1-21.93,16.34c-.25,0-.5.02-.75.04a27.313,27.313,0,0,1-17.83-41.51,7.989,7.989,0,0,0-5.01-12.12,27.305,27.305,0,0,1,0-53.3,7.989,7.989,0,0,0,5.01-12.12,27.312,27.312,0,0,1,17.84-41.51c.24.02.49.04.74.04a23.01,23.01,0,0,1,21.93,16.34,8.018,8.018,0,0,0,7.67,5.72,8.218,8.218,0,0,0,2.28-.33,8.005,8.005,0,0,0,5.39-9.95,39.024,39.024,0,0,0-20-23.68,27.295,27.295,0,0,1,49.73-19.81ZM424,312a8,8,0,1,1-8,8A8.011,8.011,0,0,1,424,312Zm-69.36-65.35a7.989,7.989,0,0,0-5.01,12.12,27.315,27.315,0,0,1-17.77,41.5c-.18-.01-.35-.03-.52-.03A23.013,23.013,0,0,1,309.4,283.9a8,8,0,0,0-15.34,4.56,39.02,39.02,0,0,0,19.7,23.53,27.67,27.67,0,0,1,.47,5.08,27.3,27.3,0,0,1-50.28,14.74V108.19a27.3,27.3,0,0,1,50.28,14.74,27.67,27.67,0,0,1-.47,5.08,39.02,39.02,0,0,0-19.7,23.53,8.005,8.005,0,0,0,5.39,9.95,8.218,8.218,0,0,0,2.28.33,8.018,8.018,0,0,0,7.67-5.72,23.013,23.013,0,0,1,21.94-16.34c.17,0,.34-.02.52-.03a27.315,27.315,0,0,1,17.77,41.5,7.989,7.989,0,0,0,5.01,12.12,27.305,27.305,0,0,1,0,53.3Z"></path>
  <path d="M209.281,204.794c4.036-5.154,6.362-5.908,6.807-6.005a3.475,3.475,0,0,1,.844.955,1.564,1.564,0,0,1-.087-.166l14.31-7.156c-.462-.923-4.779-9.041-14.014-9.616-6.905-.43-13.526,3.438-20.153,11.754a84.089,84.089,0,0,0-9.41-5.715,8,8,0,0,0-7.168,14.3,78.124,78.124,0,0,1,14.569,10.088C200.919,218.487,208,226.7,208,236a8,8,0,0,0,16,0C224,223.272,217.086,212.692,209.281,204.794Z"></path>
  <path d="M496,376H472V84a28.031,28.031,0,0,0-28-28H68A28.031,28.031,0,0,0,40,84V376H16a8,8,0,0,0-8,8v44a28.031,28.031,0,0,0,28,28H476a28.031,28.031,0,0,0,28-28V384A8,8,0,0,0,496,376ZM56,84A12.01,12.01,0,0,1,68,72H444a12.01,12.01,0,0,1,12,12V376H56ZM293.75,392l-4,16h-67.5l-4-16ZM488,428a12.01,12.01,0,0,1-12,12H36a12.01,12.01,0,0,1-12-12V392H201.75l6.49,25.94A8,8,0,0,0,216,424h80a8,8,0,0,0,7.76-6.06L310.25,392H488Z"></path>
  <path d="M337.94,214.76c-25.36,6.34-25.93,31.23-25.94,32.28a8.024,8.024,0,0,1-8,7.94h-.04A7.985,7.985,0,0,1,296,247c0-9.29,3.93-25.36,16.69-36.72-2.37-4.51-5.15-5.2-7.33-5.27a14.681,14.681,0,0,0-5.86,1.18,7.952,7.952,0,0,1-10.69-3.59,8.04,8.04,0,0,1,3.61-10.76c9-4.49,25.13-5.35,33.86,9.96a54.99,54.99,0,0,1,7.78-2.56,8,8,0,1,1,3.88,15.52Z"></path>
</svg>
